<!DOCTYPE svg PUBLIC "-//W3C//DTD SVG 1.1//EN" "http://www.w3.org/Graphics/SVG/1.1/DTD/svg11.dtd">
<!-- Uploaded to: SVG Repo, www.svgrepo.com, Transformed by: SVG Repo Mixer Tools -->
<svg fill="#000000" width="64px" height="64px" viewBox="0 0 64 64" xmlns="http://www.w3.org/2000/svg">
<g id="SVGRepo_bgCarrier" stroke-width="0"/>
<g id="SVGRepo_tracerCarrier" stroke-linecap="round" stroke-linejoin="round"/>
<g id="SVGRepo_iconCarrier"> <title/> <g data-name="Marketing Idea" id="Marketing_Idea"> <path d="M42.15,25.6a12,12,0,1,1-3.69-3.71l1.08-1.68a14,14,0,1,0,4.3,4.33Z"/> <path d="M32,30V28a4,4,0,1,0,4,4H34a2,2,0,1,1-2-2Z"/> <polygon points="49 12 47 12 47 15.59 36.42 26.16 35.66 23.28 32 32 40.72 28.34 37.84 27.57 48.41 17 52 17 52 15 49 15 49 12"/> <path d="M40,46v4a3,3,0,0,1-2,2.82V56a1,1,0,0,1-1,1H27a1,1,0,0,1-1-1V52.82A3,3,0,0,1,24,50V46a1,1,0,0,1,.5-.87,1,1,0,0,1,1,0,12.2,12.2,0,0,0,13,0,1,1,0,0,1,1,0A1,1,0,0,1,40,46Z"/> <path d="M53,11V7H51v5a1,1,0,0,0,1,1h5V11Z"/> </g> </g>
</svg>