<!DOCTYPE svg PUBLIC "-//W3C//DTD SVG 1.1//EN" "http://www.w3.org/Graphics/SVG/1.1/DTD/svg11.dtd">
<!-- Uploaded to: SVG Repo, www.svgrepo.com, Transformed by: SVG Repo Mixer Tools -->
<svg fill="#000000" width="64px" height="64px" viewBox="0 0 64 64" xmlns="http://www.w3.org/2000/svg">
<g id="SVGRepo_bgCarrier" stroke-width="0"/>
<g id="SVGRepo_tracerCarrier" stroke-linecap="round" stroke-linejoin="round"/>
<g id="SVGRepo_iconCarrier"> <title/> <g data-name="Head Hunting" id="Head_Hunting"> <rect height="5" width="2" x="31" y="7"/> <rect height="5" width="2" x="31" y="52"/> <rect height="2" width="5" x="52" y="31"/> <rect height="2" width="5" x="7" y="31"/> <path d="M32,15A17,17,0,1,0,49,32,17,17,0,0,0,32,15Zm0,32A15,15,0,1,1,47,32,15,15,0,0,1,32,47Z"/> <path d="M40,38.12V42H38V38.12a6,6,0,0,0-1.76-4.24,6.28,6.28,0,0,0-1.91-1.28l-.06,0a8.49,8.49,0,0,1-1,.27l-.15,0A7.9,7.9,0,0,1,32,33a8,8,0,0,1-1.1-.09l-.15,0a6.8,6.8,0,0,1-1-.26l-.07,0A6,6,0,0,0,26,38.12V42H24V38.12a8,8,0,0,1,3.61-6.65A7.12,7.12,0,0,1,32,18.75a7.26,7.26,0,0,1,1.16.1h0A7.05,7.05,0,0,1,39,24.52c0,.23.08.47.1.71s0,.43,0,.65a7,7,0,0,1-2.72,5.58A7.86,7.86,0,0,1,40,38.12Z"/> </g> </g>
</svg>